<svg height="512" viewBox="0 0 64 64" width="512" xmlns="http://www.w3.org/2000/svg" xmlns:xlink="http://www.w3.org/1999/xlink"><linearGradient id="gradient_ice" gradientUnits="userSpaceOnUse" x1="6.733" x2="64.26" y1="71.713" y2=".911"><stop offset="0" stop-color="#fff200"/><stop offset="1" stop-color="#cd118c"/></linearGradient><linearGradient id="gradient_ice-2" x1="7.336" x2="64.862" xlink:href="#gradient_ice" y1="72.202" y2="1.4"/><linearGradient id="gradient_ice-3" x1="-7.121" x2="50.406" xlink:href="#gradient_ice" y1="60.456" y2="-10.346"/><linearGradient id="gradient_ice-4" x1=".107" x2="57.634" xlink:href="#gradient_ice" y1="66.329" y2="-4.473"/><g id="sql-file"><path d="m61 6h-11.586l-3.707-3.707a1 1 0 0 0 -.707-.293h-28a1 1 0 0 0 -1 1v18h-13a1 1 0 0 0 -1 1v20a1 1 0 0 0 1 1h13v14a1 1 0 0 0 1 1h3v3a1 1 0 0 0 1 1h40a1 1 0 0 0 1-1v-54a1 1 0 0 0 -1-1zm-15-.586 8.586 8.586h-7.586a1 1 0 0 1 -1-1zm-42 17.586h48v18h-48zm14 20h35a1 1 0 0 0 1-1v-20a1 1 0 0 0 -1-1h-35v-17h26v9a3 3 0 0 0 3 3h9v40h-38zm42 17h-38v-2h35a1 1 0 0 0 1-1v-42a1 1 0 0 0 -.293-.707l-6.293-6.293h8.586z" fill="url(#gradient_ice)"/><path d="m37 25h-2v13a1 1 0 0 0 1 1h9v-2h-8z" fill="url(#gradient_ice-2)"/><path d="m20 25h-8a1 1 0 0 0 -1 1v6a1 1 0 0 0 1 1h7v4h-6v-2h-2v3a1 1 0 0 0 1 1h8a1 1 0 0 0 1-1v-6a1 1 0 0 0 -1-1h-7v-4h6v2h2v-3a1 1 0 0 0 -1-1z" fill="url(#gradient_ice-3)"/><path d="m32 25h-8a1 1 0 0 0 -1 1v12a1 1 0 0 0 1 1h8a1 1 0 0 0 1-1v-12a1 1 0 0 0 -1-1zm-7 2h6v8l-1.2-1.6a1 1 0 0 0 -.8-.4h-2v2h1.5l1.5 2h-5z" fill="url(#gradient_ice-4)"/></g></svg>